<svg xmlns="http://www.w3.org/2000/svg" width="129.586" height="33.356" viewBox="0 0 129.586 33.356">
  <g id="Group_4" data-name="Group 4" transform="translate(-157.894 -441.644)">
    <path id="Path_1" data-name="Path 1" d="M280.515,530.388v-3.712c0-3.9-1.29-5.891-4.115-5.891a3.993,3.993,0,0,0-3.685,1.909v-8.31h-2.769v19.634h2.769V526.73c0-2.152,1.238-3.657,2.637-3.657,1.64,0,2.393,1.236,2.393,3.953v3.819c0,3.095,1.292,3.686,4.061,3.12v-2.016C280.649,532.082,280.515,531.6,280.515,530.388Z" transform="translate(-93.052 -60.406)" fill="#198643"/>
    <path id="Path_2" data-name="Path 2" d="M354.3,563.269a3.492,3.492,0,0,1-3.846-3.551c2.959,1.265,7.961.673,7.961-3.388,0-2.664-1.83-4.2-5.029-4.2-2.8,0-5.514,2.233-5.6,6.4-.134,4.6,2.421,7.074,6.349,7.074a7.313,7.313,0,0,0,3.873-1l-.081-2.313A7.824,7.824,0,0,1,354.3,563.269Zm-.861-8.8c1.426,0,2.287.7,2.287,1.964,0,2.152-3.229,2.259-5.165,1.318C350.8,555.5,351.961,554.474,353.44,554.474Z" transform="translate(-157.693 -91.754)" fill="#198643"/>
    <path id="Path_3" data-name="Path 3" d="M426.56,516.165l.376-2.125c-3.551-1.372-6.913-.538-6.913,4.546v1.694h-2.1v2.206h2.045v10.757h2.689V522.487h3.63v-2.206h-3.63v-1.641C422.66,515.385,424.731,515.251,426.56,516.165Z" transform="translate(-215.939 -59.632)" fill="#198643"/>
    <path id="Path_4" data-name="Path 4" d="M483.771,538.654c-4.322,0-7.7,3.523-8.1,8.558-.5,6.4,3.587,9.818,8.58,7.741l.127-1.342c-4.343,2.014-7.847-.8-7.407-6.4.336-4.237,3.084-7.154,6.692-7.154,3.756,0,5.875,2.706,5.433,7.071-.1,1.615-.8,3.8-1.783,3.8-.4-.021-.483-.546-.419-1.406l.462-6.02a5.408,5.408,0,0,0-3.5-1.553c-2.685-.063-4.951,1.8-5.223,5.265-.231,2.812.943,5.224,3.545,5.224a3.292,3.292,0,0,0,2.9-2.161l-.021.315c-.083,1.174.378,1.972,1.448,1.972,1.951,0,3.629-2.391,3.9-5.433C490.84,541.99,488.239,538.654,483.771,538.654Zm1.2,8.622c-.168,1.594-.8,3.168-2.308,3.168-1.468,0-1.972-1.51-1.868-3.21.147-2.182,1.28-3.336,2.644-3.4a2.578,2.578,0,0,1,1.741.735Z" transform="translate(-263.859 -80.56)" fill="#198643"/>
    <path id="Path_5" data-name="Path 5" d="M662.715,552.134c-3.5,0-5.809,2.689-5.809,6.7,0,4.088,2.313,6.8,5.809,6.8,3.524,0,5.836-2.717,5.836-6.8C668.552,554.823,666.239,552.134,662.715,552.134Zm0,11c-1.909,0-3.146-1.721-3.146-4.3,0-2.555,1.236-4.2,3.146-4.2,1.936,0,3.174,1.641,3.174,4.2C665.89,561.414,664.652,563.135,662.715,563.135Z" transform="translate(-414.396 -91.754)" fill="#198643"/>
    <path id="Path_6" data-name="Path 6" d="M753.369,561.9v-4.2c0-2.932-.7-5.569-3.764-5.569a4.088,4.088,0,0,0-3.982,2.313,3.013,3.013,0,0,0-3.281-2.313,4.082,4.082,0,0,0-3.739,2.394c.081-2.716-2.231-2.583-3.658-2.152v1.775c1.077-.109,1.211.431,1.211,1.936v9.279h2.771v-7.585c0-2.043,1.075-3.254,2.474-3.281s2.125,1.211,2.125,3.254v7.612h2.716v-7.612c0-2.043,1-3.254,2.367-3.281,1.317-.027,1.989.941,1.989,3.2v4.68c0,2.9,1.723,3.524,4.088,2.957v-1.989C753.424,563.539,753.369,563,753.369,561.9Z" transform="translate(-479.203 -91.754)" fill="#198643"/>
    <path id="Path_7" data-name="Path 7" d="M865.941,563.269a3.493,3.493,0,0,1-3.847-3.551c2.959,1.265,7.961.673,7.961-3.388,0-2.664-1.828-4.2-5.029-4.2-2.8,0-5.513,2.233-5.594,6.4-.134,4.6,2.422,7.074,6.347,7.074a7.318,7.318,0,0,0,3.875-1l-.081-2.313A7.824,7.824,0,0,1,865.941,563.269Zm-.861-8.8c1.426,0,2.286.7,2.286,1.964,0,2.152-3.227,2.259-5.163,1.318C862.444,555.5,863.6,554.474,865.08,554.474Z" transform="translate(-582.575 -91.754)" fill="#198643"/>
    <g id="Group_1" data-name="Group 1" transform="translate(157.894 452.093)">
      <path id="Path_8" data-name="Path 8" d="M169.876,510.618l-.483-.836-1.207-2.091a2.9,2.9,0,0,0-.846-4,2.618,2.618,0,0,0-1.626-.426,2.74,2.74,0,0,0-1.794.651,3.142,3.142,0,0,0-3.705,4.636.018.018,0,0,1,0,.014c-.07.341-.4.348-.515.149a3.587,3.587,0,0,1-.48-1.606.262.262,0,0,0-.444-.173,2.876,2.876,0,0,0,2.152,4.945l1.041,1.808.532.928a.892.892,0,0,0,.231.266,1.147,1.147,0,0,0,.507.219,6.311,6.311,0,0,1,5.987-4.232,7.461,7.461,0,0,1,.75.039A.83.83,0,0,0,169.876,510.618Zm-6.717.946a.264.264,0,0,1-.224.019c-.136-.051-1.413-.548-1.658-1.2a.022.022,0,0,1,0-.01c.08-.322.4-.326.514-.131a3.342,3.342,0,0,0,1.445.894.013.013,0,0,1,.007.007A.3.3,0,0,1,163.159,511.565Zm1.526-1.033a.011.011,0,0,1-.008-.007l-.907-1.572s0-.007,0-.01c.073-.337.4-.342.517-.146l.785,1.362a.261.261,0,0,1,.036.131C165.106,510.457,164.945,510.617,164.685,510.532Zm2.233-1.248a.267.267,0,0,1-.127.185.3.3,0,0,1-.409-.146.024.024,0,0,1,0-.012,3.346,3.346,0,0,0-.053-1.694c-.112-.193.053-.47.37-.378l.008.005C167.151,507.787,166.942,509.14,166.918,509.284Z" transform="translate(-157.894 -503.264)" fill="#198643"/>
      <path id="Path_9" data-name="Path 9" d="M201.506,560.741a5.244,5.244,0,0,1-5.38,4.9c-2.9,0-5.809-1.937-5.809-6.778a8.141,8.141,0,0,1,.656-3.362,5.582,5.582,0,0,1,5.18-3.362c.18,0,.358.007.538.022a4.931,4.931,0,0,1,4.761,4.6h-2.61a2.5,2.5,0,0,0-2.662-2.07c-1.587,0-3.147,1.265-3.147,4.17,0,3.039,1.641,4.3,3.147,4.3a2.753,2.753,0,0,0,2.689-2.42Z" transform="translate(-184.818 -543.847)" fill="#198643"/>
    </g>
    <path id="Path_10" data-name="Path 10" d="M584.761,471.542v2.016c-2.769.566-4.061-.025-4.061-3.12V466.62c0-2.716-.753-3.953-2.394-3.953a2.861,2.861,0,0,0-2.511,2.521v0c0,2.983,0,7.183,0,7.183l-.005.007a.02.02,0,0,1,0,.022,1.3,1.3,0,0,1-.122.561,1.347,1.347,0,0,1-.641.649,1.32,1.32,0,0,1-.578.131,1.3,1.3,0,0,1-.583-.131,1.335,1.335,0,0,1-.756-1.211.062.062,0,0,1,.005-.025l-.008,0s-.061-8.1-.061-8.884c.171-.314.963-2.34-.148-3.551a2.647,2.647,0,0,0-1.284-.731c0-15.482,3.7-17.569,3.7-17.569l.453,0s.025,18.039.024,20.462a3.987,3.987,0,0,1,3.563-1.728c2.825,0,4.115,1.991,4.115,5.891v3.712C583.47,471.193,583.6,471.676,584.761,471.542Z" transform="translate(-343.568 0)" fill="#198643"/>
  </g>
</svg>